<?xml version="1.0" encoding="utf-8"?>
<!-- Generator: Adobe Illustrator 23.0.4, SVG Export Plug-In . SVG Version: 6.00 Build 0)  -->
<svg version="1.1" id="Capa_1" xmlns="http://www.w3.org/2000/svg" xmlns:xlink="http://www.w3.org/1999/xlink" x="0px" y="0px"
	 viewBox="0 0 611.6 166.6" style="enable-background:new 0 0 611.6 166.6;" xml:space="preserve">
<style type="text/css">
	.Estilo_x0020_gráfico_x0020_21{fill:url(#SVGID_1_);}
	.Estilo_x0020_gráfico_x0020_34{fill:url(#SVGID_2_);}
	.st0{fill:#233B85;}
	.st1{fill:url(#SVGID_3_);}
	.st2{fill:url(#SVGID_4_);}
	.st3{fill:url(#SVGID_5_);}
</style>
<linearGradient id="SVGID_1_" gradientUnits="userSpaceOnUse" x1="36.6737" y1="54.9954" x2="37.0756" y2="55.9111">
	<stop  offset="0" style="stop-color:#6BBACB"/>
	<stop  offset="0.272" style="stop-color:#3C83B1"/>
	<stop  offset="0.4969" style="stop-color:#195A9D"/>
	<stop  offset="0.8221" style="stop-color:#233B85"/>
</linearGradient>
<linearGradient id="SVGID_2_" gradientUnits="userSpaceOnUse" x1="36.6737" y1="54.9954" x2="36.6546" y2="53.9955">
	<stop  offset="7.361960e-02" style="stop-color:#4CA980"/>
	<stop  offset="0.1551" style="stop-color:#449C84"/>
	<stop  offset="0.3061" style="stop-color:#2E7990"/>
	<stop  offset="0.4294" style="stop-color:#19589B"/>
	<stop  offset="0.5361" style="stop-color:#1D4C92"/>
	<stop  offset="0.7136" style="stop-color:#213F88"/>
	<stop  offset="0.8773" style="stop-color:#233B85"/>
</linearGradient>
<g>
	<g>
		<g>
			<path class="st0" d="M206.3,114.9c-6.4,0-11.2-1.8-14.5-5.3c-3.3-3.5-5-8.6-5-15.1c0-3.2,0.5-6.1,1.5-8.7c1-2.5,2.4-4.7,4.2-6.4
				c1.8-1.7,3.9-3.1,6.3-4c2.4-0.9,5.1-1.4,8-1.4c1.7,0,3.2,0.1,4.5,0.4c1.4,0.2,2.5,0.5,3.6,0.8c1,0.3,1.9,0.6,2.5,1
				c0.7,0.3,1.2,0.6,1.5,0.8l-2.5,7.1c-1.2-0.6-2.6-1.2-4.2-1.6c-1.6-0.5-3.4-0.7-5.4-0.7c-1.4,0-2.7,0.2-4,0.7
				c-1.3,0.4-2.4,1.2-3.4,2.2c-1,1-1.8,2.3-2.4,3.9c-0.6,1.6-0.9,3.5-0.9,5.8c0,1.8,0.2,3.5,0.6,5c0.4,1.6,1,2.9,1.9,4
				c0.9,1.1,2,2,3.5,2.7c1.4,0.7,3.2,1,5.2,1c1.3,0,2.4-0.1,3.4-0.2c1-0.1,1.9-0.3,2.7-0.5c0.8-0.2,1.5-0.4,2.1-0.7
				c0.6-0.3,1.1-0.5,1.6-0.7l2.4,7c-1.2,0.8-3,1.4-5.2,2C211.9,114.6,209.3,114.9,206.3,114.9z"/>
			<path class="st0" d="M234.6,83.7c2.5,0,4.5,0.3,6.2,0.8c1.7,0.6,3,1.4,4,2.4c1,1.1,1.7,2.3,2.1,3.8c0.4,1.5,0.6,3.2,0.6,5v17.5
				c-1.2,0.3-2.9,0.6-5,0.9c-2.1,0.4-4.7,0.5-7.8,0.5c-1.9,0-3.7-0.2-5.2-0.5c-1.6-0.3-2.9-0.9-4-1.7c-1.1-0.8-2-1.8-2.6-3
				c-0.6-1.2-0.9-2.8-0.9-4.6c0-1.7,0.3-3.2,1-4.4c0.7-1.2,1.6-2.2,2.8-2.9c1.2-0.7,2.5-1.2,4-1.5c1.5-0.3,3.1-0.5,4.7-0.5
				c1.1,0,2.1,0,2.9,0.1c0.8,0.1,1.5,0.2,2.1,0.4v-0.8c0-1.4-0.4-2.6-1.3-3.4c-0.9-0.9-2.4-1.3-4.5-1.3c-1.4,0-2.8,0.1-4.2,0.3
				c-1.4,0.2-2.6,0.5-3.6,0.9l-1.1-6.8c0.5-0.1,1.1-0.3,1.8-0.5c0.7-0.2,1.5-0.3,2.4-0.5c0.9-0.1,1.8-0.2,2.7-0.3
				C232.6,83.7,233.6,83.7,234.6,83.7z M242.7,75.4l-11.9,6L228,77l11.1-7.4L242.7,75.4z M235.2,108.2c0.8,0,1.6,0,2.4-0.1
				c0.8,0,1.4-0.1,1.8-0.2v-6.4c-0.3-0.1-0.8-0.1-1.5-0.2c-0.7-0.1-1.3-0.1-1.9-0.1c-0.8,0-1.5,0-2.2,0.1c-0.7,0.1-1.3,0.3-1.8,0.5
				c-0.5,0.3-0.9,0.6-1.2,1.1c-0.3,0.5-0.5,1-0.5,1.7c0,1.3,0.4,2.2,1.3,2.7C232.5,108,233.7,108.2,235.2,108.2z"/>
			<path class="st0" d="M270.5,98.4c0-2.7-0.3-4.6-1-5.8c-0.7-1.1-1.9-1.7-3.6-1.7c-0.5,0-1.1,0-1.6,0.1c-0.6,0.1-1.1,0.1-1.6,0.2
				v22.9h-8.4V85.5c0.7-0.2,1.6-0.4,2.5-0.6c1-0.2,2-0.4,3-0.6c1.1-0.2,2.2-0.3,3.3-0.4c1.1-0.1,2.2-0.1,3.3-0.1
				c2.1,0,3.9,0.3,5.2,0.8c1.3,0.5,2.4,1.2,3.3,1.9c1.2-0.9,2.6-1.5,4.1-2c1.6-0.5,3-0.7,4.3-0.7c2.4,0,4.3,0.3,5.8,1
				c1.5,0.7,2.7,1.6,3.6,2.8c0.9,1.2,1.5,2.6,1.9,4.3c0.3,1.7,0.5,3.5,0.5,5.5v16.7h-8.4V98.4c0-2.7-0.3-4.6-1-5.8
				c-0.7-1.1-1.9-1.7-3.6-1.7c-0.5,0-1.1,0.1-1.9,0.3c-0.8,0.2-1.5,0.5-2,0.8c0.3,0.9,0.4,1.8,0.5,2.7c0.1,1,0.1,2,0.1,3.1v16.2
				h-8.4V98.4z"/>
			<path class="st0" d="M312.6,83.7c2.5,0,4.5,0.3,6.2,0.8c1.7,0.6,3,1.4,4,2.4c1,1.1,1.7,2.3,2.1,3.8c0.4,1.5,0.6,3.2,0.6,5v17.5
				c-1.2,0.3-2.9,0.6-5,0.9c-2.1,0.4-4.7,0.5-7.8,0.5c-1.9,0-3.7-0.2-5.2-0.5c-1.6-0.3-2.9-0.9-4-1.7c-1.1-0.8-2-1.8-2.6-3
				c-0.6-1.2-0.9-2.8-0.9-4.6c0-1.7,0.3-3.2,1-4.4c0.7-1.2,1.6-2.2,2.8-2.9c1.2-0.7,2.5-1.2,4-1.5c1.5-0.3,3.1-0.5,4.7-0.5
				c1.1,0,2.1,0,2.9,0.1c0.8,0.1,1.5,0.2,2.1,0.4v-0.8c0-1.4-0.4-2.6-1.3-3.4c-0.9-0.9-2.4-1.3-4.5-1.3c-1.4,0-2.8,0.1-4.2,0.3
				c-1.4,0.2-2.6,0.5-3.6,0.9l-1.1-6.8c0.5-0.1,1.1-0.3,1.8-0.5c0.7-0.2,1.5-0.3,2.4-0.5c0.9-0.1,1.8-0.2,2.7-0.3
				C310.7,83.7,311.6,83.7,312.6,83.7z M313.3,108.2c0.8,0,1.6,0,2.4-0.1s1.4-0.1,1.8-0.2v-6.4c-0.3-0.1-0.8-0.1-1.5-0.2
				c-0.7-0.1-1.3-0.1-1.9-0.1c-0.8,0-1.5,0-2.2,0.1c-0.7,0.1-1.3,0.3-1.8,0.5c-0.5,0.3-0.9,0.6-1.2,1.1c-0.3,0.5-0.5,1-0.5,1.7
				c0,1.3,0.4,2.2,1.3,2.7C310.5,108,311.7,108.2,313.3,108.2z"/>
			<path class="st0" d="M350.1,91.9c-0.8-0.2-1.6-0.4-2.7-0.6c-1-0.2-2.1-0.3-3.3-0.3c-0.5,0-1.2,0-1.9,0.1
				c-0.7,0.1-1.3,0.2-1.7,0.3v22.7h-8.4V86c1.5-0.5,3.3-1,5.3-1.5c2-0.5,4.3-0.7,6.9-0.7c0.4,0,1,0,1.6,0.1c0.6,0.1,1.3,0.1,1.9,0.2
				c0.6,0.1,1.3,0.2,1.9,0.3c0.6,0.1,1.2,0.3,1.6,0.5L350.1,91.9z"/>
			<path class="st0" d="M365.5,83.7c2.5,0,4.5,0.3,6.2,0.8c1.7,0.6,3,1.4,4,2.4c1,1.1,1.7,2.3,2.1,3.8c0.4,1.5,0.6,3.2,0.6,5v17.5
				c-1.2,0.3-2.9,0.6-5,0.9c-2.1,0.4-4.7,0.5-7.8,0.5c-1.9,0-3.7-0.2-5.2-0.5c-1.6-0.3-2.9-0.9-4-1.7c-1.1-0.8-2-1.8-2.6-3
				c-0.6-1.2-0.9-2.8-0.9-4.6c0-1.7,0.3-3.2,1-4.4c0.7-1.2,1.6-2.2,2.8-2.9c1.2-0.7,2.5-1.2,4-1.5c1.5-0.3,3.1-0.5,4.7-0.5
				c1.1,0,2.1,0,2.9,0.1c0.8,0.1,1.5,0.2,2.1,0.4v-0.8c0-1.4-0.4-2.6-1.3-3.4c-0.9-0.9-2.4-1.3-4.5-1.3c-1.4,0-2.8,0.1-4.2,0.3
				c-1.4,0.2-2.6,0.5-3.6,0.9l-1.1-6.8c0.5-0.1,1.1-0.3,1.8-0.5c0.7-0.2,1.5-0.3,2.4-0.5c0.9-0.1,1.8-0.2,2.7-0.3
				C363.6,83.7,364.5,83.7,365.5,83.7z M366.2,108.2c0.8,0,1.6,0,2.4-0.1c0.8,0,1.4-0.1,1.8-0.2v-6.4c-0.3-0.1-0.8-0.1-1.5-0.2
				c-0.7-0.1-1.3-0.1-1.9-0.1c-0.8,0-1.5,0-2.2,0.1c-0.7,0.1-1.3,0.3-1.8,0.5c-0.5,0.3-0.9,0.6-1.2,1.1c-0.3,0.5-0.5,1-0.5,1.7
				c0,1.3,0.4,2.2,1.3,2.7C363.4,108,364.7,108.2,366.2,108.2z"/>
		</g>
		<g>
			<path class="st0" d="M422.6,113.1c-0.8,0.2-1.6,0.4-2.6,0.6c-1,0.2-2,0.4-3.1,0.5c-1.1,0.1-2.2,0.3-3.3,0.4
				c-1.1,0.1-2.2,0.1-3.2,0.1c-2.4,0-4.6-0.4-6.5-1.1c-1.9-0.7-3.5-1.7-4.8-3.1c-1.3-1.3-2.3-3-3-4.8c-0.7-1.9-1-4-1-6.4
				c0-2.4,0.3-4.6,0.9-6.5c0.6-1.9,1.5-3.6,2.6-4.9c1.1-1.4,2.5-2.4,4.1-3.1c1.6-0.7,3.5-1.1,5.6-1.1c1.2,0,2.2,0.1,3.1,0.3
				c0.9,0.2,1.9,0.5,2.8,1V71.7l8.4-1.4V113.1z M403.6,99c0,2.6,0.6,4.7,1.7,6.3c1.2,1.6,2.9,2.4,5.2,2.4c0.8,0,1.4,0,2.1-0.1
				c0.6-0.1,1.2-0.1,1.6-0.2V92.1c-0.5-0.3-1.2-0.6-2.1-0.8c-0.8-0.2-1.7-0.3-2.6-0.3C405.6,90.9,403.6,93.6,403.6,99z"/>
			<path class="st0" d="M428.1,99.5c0-2.6,0.4-4.9,1.2-6.9c0.8-2,1.9-3.6,3.2-4.9c1.3-1.3,2.8-2.3,4.5-3c1.7-0.7,3.5-1,5.3-1
				c4.2,0,7.5,1.3,10,3.9c2.4,2.6,3.7,6.4,3.7,11.4c0,0.5,0,1-0.1,1.6c0,0.6-0.1,1.1-0.1,1.6h-19.1c0.2,1.7,1,3.1,2.4,4.1
				c1.4,1,3.3,1.5,5.8,1.5c1.5,0,3.1-0.1,4.5-0.4c1.5-0.3,2.7-0.6,3.6-1l1.1,6.8c-0.5,0.2-1.1,0.5-1.8,0.7c-0.8,0.2-1.6,0.4-2.5,0.6
				c-0.9,0.2-1.9,0.3-3,0.4c-1.1,0.1-2.1,0.2-3.2,0.2c-2.7,0-5-0.4-7-1.2c-2-0.8-3.6-1.9-4.9-3.2c-1.3-1.4-2.3-3-2.9-4.9
				C428.4,103.7,428.1,101.7,428.1,99.5z M447.9,96.3c0-0.7-0.2-1.4-0.4-2.1c-0.2-0.7-0.5-1.3-1-1.8c-0.4-0.5-1-1-1.6-1.3
				c-0.7-0.3-1.5-0.5-2.5-0.5c-0.9,0-1.7,0.2-2.4,0.5c-0.7,0.3-1.2,0.7-1.7,1.3c-0.5,0.5-0.8,1.1-1,1.8c-0.2,0.7-0.4,1.4-0.5,2.1
				H447.9z"/>
		</g>
		<g>
			<path class="st0" d="M468.8,164.8c-0.8,0.2-1.6,0.4-2.6,0.6c-1,0.2-2,0.4-3.1,0.5c-1.1,0.1-2.2,0.3-3.3,0.4
				c-1.1,0.1-2.2,0.1-3.2,0.1c-2.4,0-4.6-0.4-6.5-1.1c-1.9-0.7-3.5-1.7-4.8-3.1c-1.3-1.3-2.3-3-3-4.8c-0.7-1.9-1-4-1-6.4
				c0-2.4,0.3-4.6,0.9-6.5c0.6-1.9,1.5-3.6,2.6-4.9c1.1-1.4,2.5-2.4,4.1-3.1c1.6-0.7,3.5-1.1,5.6-1.1c1.2,0,2.2,0.1,3.1,0.3
				c0.9,0.2,1.9,0.5,2.8,1v-13.4l8.4-1.4V164.8z M449.8,150.7c0,2.6,0.6,4.7,1.7,6.3c1.2,1.6,2.9,2.4,5.2,2.4c0.8,0,1.4,0,2.1-0.1
				c0.6-0.1,1.2-0.1,1.6-0.2v-15.3c-0.5-0.3-1.2-0.6-2.1-0.8c-0.8-0.2-1.7-0.3-2.6-0.3C451.8,142.6,449.8,145.3,449.8,150.7z"/>
			<path class="st0" d="M474.3,151.2c0-2.6,0.4-4.9,1.2-6.9c0.8-2,1.9-3.6,3.2-4.9s2.8-2.3,4.5-3c1.7-0.7,3.5-1,5.3-1
				c4.2,0,7.5,1.3,10,3.9c2.4,2.6,3.7,6.4,3.7,11.4c0,0.5,0,1-0.1,1.6c0,0.6-0.1,1.1-0.1,1.6H483c0.2,1.7,1,3.1,2.4,4.1
				c1.4,1,3.3,1.5,5.8,1.5c1.5,0,3.1-0.1,4.5-0.4c1.5-0.3,2.7-0.6,3.6-1l1.1,6.8c-0.5,0.2-1.1,0.5-1.8,0.7c-0.8,0.2-1.6,0.4-2.5,0.6
				c-0.9,0.2-1.9,0.3-3,0.4c-1.1,0.1-2.1,0.2-3.2,0.2c-2.7,0-5-0.4-7-1.2c-2-0.8-3.6-1.9-4.9-3.2c-1.3-1.4-2.3-3-2.9-4.9
				C474.6,155.4,474.3,153.3,474.3,151.2z M494.1,148c0-0.7-0.2-1.4-0.4-2.1c-0.2-0.7-0.5-1.3-1-1.8c-0.4-0.5-1-1-1.6-1.3
				c-0.7-0.3-1.5-0.5-2.5-0.5c-0.9,0-1.7,0.2-2.4,0.5c-0.7,0.3-1.2,0.7-1.7,1.3c-0.5,0.5-0.8,1.1-1,1.8c-0.2,0.7-0.4,1.4-0.5,2.1
				H494.1z"/>
		</g>
		<g>
			<path class="st0" d="M206.3,166.6c-6.4,0-11.2-1.8-14.5-5.3c-3.3-3.5-5-8.6-5-15.1c0-3.2,0.5-6.1,1.5-8.7c1-2.5,2.4-4.7,4.2-6.4
				c1.8-1.7,3.9-3.1,6.3-4c2.4-0.9,5.1-1.4,8-1.4c1.7,0,3.2,0.1,4.5,0.4c1.4,0.2,2.5,0.5,3.6,0.8c1,0.3,1.9,0.6,2.5,1
				c0.7,0.3,1.2,0.6,1.5,0.8l-2.5,7.1c-1.2-0.6-2.6-1.2-4.2-1.6c-1.6-0.5-3.4-0.7-5.4-0.7c-1.4,0-2.7,0.2-4,0.7
				c-1.3,0.5-2.4,1.2-3.4,2.2c-1,1-1.8,2.3-2.4,3.9c-0.6,1.6-0.9,3.5-0.9,5.8c0,1.8,0.2,3.5,0.6,5c0.4,1.6,1,2.9,1.9,4
				c0.9,1.1,2,2,3.5,2.7c1.4,0.7,3.2,1,5.2,1c1.3,0,2.4-0.1,3.4-0.2c1-0.1,1.9-0.3,2.7-0.5c0.8-0.2,1.5-0.4,2.1-0.7
				c0.6-0.3,1.1-0.5,1.6-0.7l2.4,7c-1.2,0.8-3,1.4-5.2,2C211.9,166.3,209.3,166.6,206.3,166.6z"/>
			<path class="st0" d="M250.5,150.9c0,2.3-0.3,4.5-1,6.4c-0.7,1.9-1.7,3.6-2.9,5c-1.3,1.4-2.8,2.4-4.6,3.2c-1.8,0.8-3.8,1.1-6,1.1
				c-2.2,0-4.2-0.4-5.9-1.1c-1.8-0.8-3.3-1.8-4.6-3.2c-1.3-1.4-2.3-3-3-5c-0.7-1.9-1.1-4.1-1.1-6.4c0-2.3,0.4-4.5,1.1-6.4
				c0.7-1.9,1.7-3.6,3-4.9c1.3-1.4,2.8-2.4,4.6-3.2c1.8-0.8,3.7-1.1,5.8-1.1c2.1,0,4.1,0.4,5.9,1.1c1.8,0.8,3.3,1.8,4.6,3.2
				c1.3,1.4,2.3,3,3,4.9C250.1,146.4,250.5,148.6,250.5,150.9z M241.9,150.9c0-2.6-0.5-4.6-1.6-6.1c-1-1.5-2.5-2.2-4.4-2.2
				c-1.9,0-3.4,0.7-4.5,2.2c-1.1,1.5-1.6,3.5-1.6,6.1c0,2.6,0.5,4.7,1.6,6.2c1.1,1.5,2.5,2.3,4.5,2.3c1.9,0,3.4-0.8,4.4-2.3
				C241.4,155.5,241.9,153.5,241.9,150.9z"/>
			<path class="st0" d="M272.2,150c0-2.7-0.3-4.6-1-5.8c-0.7-1.1-1.9-1.7-3.6-1.7c-0.5,0-1.1,0-1.6,0.1c-0.6,0.1-1.1,0.1-1.6,0.2
				v22.9h-8.4v-28.6c0.7-0.2,1.6-0.4,2.5-0.6c1-0.2,2-0.4,3-0.6c1.1-0.2,2.2-0.3,3.3-0.4c1.1-0.1,2.2-0.1,3.3-0.1
				c2.1,0,3.9,0.3,5.2,0.8c1.3,0.5,2.4,1.2,3.3,1.9c1.2-0.9,2.6-1.5,4.1-2c1.6-0.5,3-0.7,4.3-0.7c2.4,0,4.3,0.3,5.8,1
				c1.5,0.7,2.7,1.6,3.6,2.8c0.9,1.2,1.5,2.6,1.9,4.3c0.3,1.7,0.5,3.5,0.5,5.5v16.7h-8.4V150c0-2.7-0.3-4.6-1-5.8
				c-0.7-1.1-1.9-1.7-3.6-1.7c-0.5,0-1.1,0.1-1.9,0.3c-0.8,0.2-1.5,0.5-2,0.8c0.3,0.9,0.4,1.8,0.5,2.7c0.1,1,0.1,2,0.1,3.1v16.2
				h-8.4V150z"/>
			<path class="st0" d="M302,151.2c0-2.6,0.4-4.9,1.2-6.9c0.8-2,1.9-3.6,3.2-4.9c1.3-1.3,2.8-2.3,4.5-3c1.7-0.7,3.5-1,5.3-1
				c4.2,0,7.5,1.3,10,3.9c2.4,2.6,3.7,6.4,3.7,11.4c0,0.5,0,1-0.1,1.6c0,0.6-0.1,1.1-0.1,1.6h-19.1c0.2,1.7,1,3.1,2.4,4.1
				c1.4,1,3.3,1.5,5.8,1.5c1.5,0,3.1-0.1,4.5-0.4c1.5-0.3,2.7-0.6,3.6-1l1.1,6.8c-0.5,0.2-1.1,0.5-1.8,0.7c-0.8,0.2-1.6,0.4-2.5,0.6
				c-0.9,0.2-1.9,0.3-3,0.4c-1.1,0.1-2.1,0.2-3.2,0.2c-2.7,0-5-0.4-7-1.2c-2-0.8-3.6-1.9-4.9-3.2c-1.3-1.4-2.3-3-2.9-4.9
				C302.3,155.4,302,153.3,302,151.2z M321.8,148c0-0.7-0.2-1.4-0.4-2.1c-0.2-0.7-0.5-1.3-1-1.8c-0.4-0.5-1-1-1.6-1.3
				c-0.7-0.3-1.5-0.5-2.5-0.5c-0.9,0-1.7,0.2-2.4,0.5c-0.7,0.3-1.2,0.7-1.7,1.3c-0.5,0.5-0.8,1.1-1,1.8c-0.2,0.7-0.4,1.4-0.5,2.1
				H321.8z"/>
			<path class="st0" d="M353.3,143.6c-0.8-0.2-1.6-0.4-2.7-0.6c-1-0.2-2.1-0.3-3.3-0.3c-0.5,0-1.2,0-1.9,0.1
				c-0.7,0.1-1.3,0.2-1.7,0.3v22.7h-8.4v-28.1c1.5-0.5,3.3-1,5.3-1.5c2-0.5,4.3-0.7,6.9-0.7c0.5,0,1,0,1.6,0.1
				c0.6,0.1,1.3,0.1,1.9,0.2c0.6,0.1,1.3,0.2,1.9,0.3c0.6,0.1,1.2,0.3,1.6,0.5L353.3,143.6z"/>
			<path class="st0" d="M356.5,150.9c0-2.1,0.3-4.2,1-6.1c0.7-1.9,1.7-3.6,3-5c1.3-1.4,2.9-2.5,4.8-3.4c1.9-0.8,4-1.2,6.4-1.2
				c1.6,0,3,0.1,4.3,0.4c1.3,0.3,2.6,0.7,3.8,1.2l-1.7,6.7c-0.8-0.3-1.7-0.6-2.6-0.8c-0.9-0.2-2-0.3-3.2-0.3c-2.5,0-4.3,0.8-5.6,2.3
				c-1.2,1.5-1.8,3.6-1.8,6.1c0,2.7,0.6,4.7,1.7,6.2c1.1,1.5,3.1,2.2,6,2.2c1,0,2.1-0.1,3.3-0.3c1.2-0.2,2.2-0.5,3.2-0.9l1.2,6.9
				c-1,0.4-2.2,0.8-3.7,1.1c-1.5,0.3-3.1,0.5-4.9,0.5c-2.7,0-5-0.4-7-1.2c-2-0.8-3.6-1.9-4.8-3.3c-1.3-1.4-2.2-3-2.8-4.9
				C356.7,155.2,356.5,153.2,356.5,150.9z"/>
			<path class="st0" d="M394.2,127.5c0,1.5-0.5,2.8-1.5,3.6c-1,0.9-2.2,1.3-3.5,1.3c-1.4,0-2.5-0.4-3.5-1.3c-1-0.9-1.5-2.1-1.5-3.6
				c0-1.5,0.5-2.8,1.5-3.6c1-0.9,2.2-1.3,3.5-1.3c1.4,0,2.5,0.4,3.5,1.3C393.7,124.8,394.2,126,394.2,127.5z M393.4,165.8H385v-29.7
				h8.4V165.8z"/>
			<path class="st0" d="M427.9,150.9c0,2.3-0.3,4.5-1,6.4c-0.7,1.9-1.7,3.6-2.9,5c-1.3,1.4-2.8,2.4-4.6,3.2c-1.8,0.8-3.8,1.1-6,1.1
				c-2.2,0-4.2-0.4-5.9-1.1c-1.8-0.8-3.3-1.8-4.6-3.2c-1.3-1.4-2.3-3-3-5c-0.7-1.9-1.1-4.1-1.1-6.4c0-2.3,0.4-4.5,1.1-6.4
				c0.7-1.9,1.7-3.6,3-4.9c1.3-1.4,2.8-2.4,4.6-3.2c1.8-0.8,3.7-1.1,5.8-1.1c2.1,0,4.1,0.4,5.9,1.1c1.8,0.8,3.3,1.8,4.6,3.2
				c1.3,1.4,2.3,3,3,4.9C427.6,146.4,427.9,148.6,427.9,150.9z M419.4,150.9c0-2.6-0.5-4.6-1.6-6.1c-1-1.5-2.5-2.2-4.4-2.2
				c-1.9,0-3.4,0.7-4.5,2.2c-1.1,1.5-1.6,3.5-1.6,6.1c0,2.6,0.5,4.7,1.6,6.2c1.1,1.5,2.5,2.3,4.5,2.3c1.9,0,3.4-0.8,4.4-2.3
				C418.8,155.5,419.4,153.5,419.4,150.9z"/>
		</g>
		<g>
			<path class="st0" d="M537.8,166.5c-6.4,0-11.2-1.8-14.5-5.3c-3.3-3.5-5-8.6-5-15.1c0-3.2,0.5-6.1,1.5-8.7c1-2.5,2.4-4.7,4.2-6.4
				c1.8-1.7,3.9-3.1,6.3-4c2.4-0.9,5.1-1.4,8-1.4c1.7,0,3.2,0.1,4.5,0.4c1.4,0.2,2.5,0.5,3.6,0.8c1,0.3,1.9,0.6,2.5,1
				c0.7,0.3,1.2,0.6,1.5,0.8l-2.5,7.1c-1.2-0.6-2.6-1.2-4.2-1.6c-1.6-0.5-3.4-0.7-5.4-0.7c-1.4,0-2.7,0.2-4,0.7
				c-1.3,0.5-2.4,1.2-3.4,2.2c-1,1-1.8,2.3-2.4,3.9c-0.6,1.6-0.9,3.5-0.9,5.8c0,1.8,0.2,3.5,0.6,5c0.4,1.6,1,2.9,1.9,4
				c0.9,1.1,2,2,3.5,2.7c1.4,0.7,3.2,1,5.2,1c1.3,0,2.4-0.1,3.4-0.2c1-0.2,1.9-0.3,2.7-0.5c0.8-0.2,1.5-0.4,2.1-0.7
				c0.6-0.3,1.1-0.5,1.6-0.7l2.4,7c-1.2,0.8-3,1.4-5.2,2C543.4,166.2,540.8,166.5,537.8,166.5z"/>
			<path class="st0" d="M566.1,135.3c2.5,0,4.5,0.3,6.2,0.8c1.7,0.6,3,1.4,4,2.4c1,1.1,1.7,2.3,2.1,3.8c0.4,1.5,0.6,3.2,0.6,5v17.5
				c-1.2,0.3-2.9,0.6-5,0.9c-2.1,0.4-4.7,0.5-7.8,0.5c-1.9,0-3.7-0.2-5.2-0.5c-1.6-0.3-2.9-0.9-4-1.7c-1.1-0.8-2-1.8-2.6-3
				c-0.6-1.2-0.9-2.8-0.9-4.6c0-1.7,0.3-3.2,1-4.4c0.7-1.2,1.6-2.2,2.8-2.9c1.2-0.7,2.5-1.2,4-1.6c1.5-0.3,3.1-0.5,4.7-0.5
				c1.1,0,2.1,0,2.9,0.1c0.8,0.1,1.5,0.2,2.1,0.4V147c0-1.4-0.4-2.6-1.3-3.4c-0.9-0.9-2.4-1.3-4.5-1.3c-1.4,0-2.8,0.1-4.2,0.3
				c-1.4,0.2-2.6,0.5-3.6,0.9l-1.1-6.8c0.5-0.1,1.1-0.3,1.8-0.5c0.7-0.2,1.5-0.3,2.4-0.5c0.9-0.1,1.8-0.2,2.7-0.3
				C564.1,135.3,565.1,135.3,566.1,135.3z M566.7,159.9c0.8,0,1.6,0,2.4-0.1c0.8,0,1.4-0.1,1.8-0.2v-6.4c-0.3-0.1-0.8-0.1-1.5-0.2
				c-0.7-0.1-1.3-0.1-1.9-0.1c-0.8,0-1.5,0-2.2,0.1c-0.7,0.1-1.3,0.3-1.8,0.5c-0.5,0.3-0.9,0.6-1.2,1.1c-0.3,0.4-0.5,1-0.5,1.7
				c0,1.3,0.4,2.2,1.3,2.7C564,159.6,565.2,159.9,566.7,159.9z"/>
			<path class="st0" d="M597.4,166.3c-2.4,0-4.4-0.3-5.9-0.8c-1.5-0.5-2.7-1.2-3.6-2.1c-0.9-0.9-1.5-2-1.8-3.2
				c-0.3-1.3-0.5-2.7-0.5-4.3v-32.6l8.4-1.4v32.3c0,0.8,0.1,1.4,0.2,2c0.1,0.6,0.3,1.1,0.6,1.5c0.3,0.4,0.8,0.8,1.4,1
				c0.6,0.3,1.4,0.4,2.4,0.5L597.4,166.3z"/>
			<path class="st0" d="M611.6,127.5c0,1.5-0.5,2.8-1.5,3.6c-1,0.9-2.2,1.3-3.5,1.3c-1.4,0-2.5-0.4-3.5-1.3c-1-0.9-1.5-2.1-1.5-3.6
				c0-1.5,0.5-2.8,1.5-3.6c1-0.9,2.2-1.3,3.5-1.3c1.4,0,2.5,0.4,3.5,1.3C611.1,124.8,611.6,126,611.6,127.5z M610.8,165.7h-8.4
				v-29.7h8.4V165.7z"/>
		</g>
	</g>
	<g>
		<linearGradient id="SVGID_3_" gradientUnits="userSpaceOnUse" x1="49.9181" y1="26.0144" x2="117.6388" y2="162.6761">
			<stop  offset="2.565870e-03" style="stop-color:#D3256B"/>
			<stop  offset="0.1272" style="stop-color:#B22972"/>
			<stop  offset="0.3065" style="stop-color:#892E7B"/>
			<stop  offset="0.3988" style="stop-color:#79307F"/>
			<stop  offset="0.4562" style="stop-color:#683280"/>
			<stop  offset="0.5801" style="stop-color:#4A3682"/>
			<stop  offset="0.7017" style="stop-color:#343984"/>
			<stop  offset="0.8189" style="stop-color:#273A85"/>
			<stop  offset="0.9268" style="stop-color:#233B85"/>
		</linearGradient>
		<path class="st1" d="M83,145.2c-34.4,0-62.2-27.9-62.2-62.2c0-34.4,27.9-62.2,62.2-62.2c13.8,0,26.6,4.5,36.9,12.1l12.3-16.7
			C118.4,6,101.4,0,83,0C37.1,0,0,37.1,0,83c0,45.8,37.1,83,83,83c45.8,0,83-37.1,83-83h-20.7C145.2,117.3,117.3,145.2,83,145.2z"/>
		<linearGradient id="SVGID_4_" gradientUnits="userSpaceOnUse" x1="84.19" y1="147.1863" x2="81.7049" y2="17.336">
			<stop  offset="7.361960e-02" style="stop-color:#4CA980"/>
			<stop  offset="0.1551" style="stop-color:#449C84"/>
			<stop  offset="0.3061" style="stop-color:#2E7990"/>
			<stop  offset="0.4294" style="stop-color:#19589B"/>
			<stop  offset="0.5361" style="stop-color:#1D4C92"/>
			<stop  offset="0.7136" style="stop-color:#213F88"/>
			<stop  offset="0.8773" style="stop-color:#233B85"/>
		</linearGradient>
		<path class="st2" d="M107.6,116.4c-6.9,5.1-15.4,8.1-24.6,8.1c-22.9,0-41.5-18.6-41.5-41.5C41.5,60,60,41.5,83,41.5
			c22.9,0,41.5,18.6,41.5,41.5h20.7c0-34.4-27.9-62.2-62.2-62.2c-34.4,0-62.2,27.9-62.2,62.2c0,34.4,27.9,62.2,62.2,62.2
			c13.8,0,26.6-4.5,36.9-12.1L107.6,116.4z"/>
		<linearGradient id="SVGID_5_" gradientUnits="userSpaceOnUse" x1="64.1574" y1="44.4772" x2="102.406" y2="131.6337">
			<stop  offset="0" style="stop-color:#6BBACB"/>
			<stop  offset="0.272" style="stop-color:#3C83B1"/>
			<stop  offset="0.4969" style="stop-color:#195A9D"/>
			<stop  offset="0.8221" style="stop-color:#233B85"/>
		</linearGradient>
		<path class="st3" d="M83,103.7c-11.5,0-20.7-9.3-20.7-20.7c0-11.5,9.3-20.7,20.7-20.7c4.6,0,8.9,1.5,12.3,4l12.3-16.7
			c-6.9-5.1-15.4-8.1-24.6-8.1C60,41.5,41.5,60,41.5,83c0,22.9,18.6,41.5,41.5,41.5c22.9,0,41.5-18.6,41.5-41.5h-20.7
			C103.7,94.4,94.4,103.7,83,103.7z"/>
	</g>
</g>
</svg>
